HIERARCHY
ROOT Hips
{
 OFFSET 0.000000 0.000000 0.000000
 CHANNELS 6 Xposition Yposition Zposition Yrotation Xrotation Zrotation
 JOINT Chest
 {
  OFFSET 0.000000 10.354800 0.006500
  CHANNELS 3 Yrotation Xrotation Zrotation
  JOINT Chest2
  {
   OFFSET 0.000000 10.435800 -0.013200
   CHANNELS 3 Yrotation Xrotation Zrotation
   JOINT Chest3
   {
    OFFSET 0.000000 10.393700 0.000000
    CHANNELS 3 Yrotation Xrotation Zrotation
    JOINT Chest4
    {
     OFFSET 0.000000 10.383100 0.000000
     CHANNELS 3 Yrotation Xrotation Zrotation
     JOINT Neck
     {
      OFFSET 0.000000 15.694000 0.000000
      CHANNELS 3 Yrotation Xrotation Zrotation
      JOINT Head
      {
       OFFSET 0.000000 9.711000 -0.028000
       CHANNELS 3 Yrotation Xrotation Zrotation
       End Site
       {
        OFFSET 0.000000 18.578700 -0.014800
       }
      }
     }
     JOINT RightCollar
     {
      OFFSET -3.157200 10.367500 0.000000
      CHANNELS 3 Yrotation Xrotation Zrotation
      JOINT RightShoulder
      {
       OFFSET -14.482500 0.000000 0.000000
       CHANNELS 3 Yrotation Xrotation Zrotation
       JOINT RightElbow
       {
        OFFSET 0.000000 -31.707800 0.000000
        CHANNELS 3 Yrotation Xrotation Zrotation
        JOINT RightWrist
        {
         OFFSET 0.000000 -25.659300 0.000000
         CHANNELS 3 Yrotation Xrotation Zrotation
         End Site
         {
          OFFSET 0.000000 -18.994300 0.000000
         }
        }
       }
      }
     }
     JOINT LeftCollar
     {
      OFFSET 3.157200 10.367500 0.000000
      CHANNELS 3 Yrotation Xrotation Zrotation
      JOINT LeftShoulder
      {
       OFFSET 14.482500 0.000000 0.000000
       CHANNELS 3 Yrotation Xrotation Zrotation
       JOINT LeftElbow
       {
        OFFSET 0.000000 -31.707800 0.000000
        CHANNELS 3 Yrotation Xrotation Zrotation
        JOINT LeftWrist
        {
         OFFSET 0.000000 -25.659300 0.000000
         CHANNELS 3 Yrotation Xrotation Zrotation
         End Site
         {
          OFFSET 0.000000 -18.994300 0.000000
         }
        }
       }
      }
     }
    }
   }
  }
 }
 JOINT RightHip
 {
  OFFSET -8.365600 -0.032100 -0.003200
  CHANNELS 3 Yrotation Xrotation Zrotation
  JOINT RightKnee
  {
   OFFSET 0.000000 -43.980000 0.003100
   CHANNELS 3 Yrotation Xrotation Zrotation
   JOINT RightAnkle
   {
    OFFSET 0.000000 -42.882800 0.005200
    CHANNELS 3 Yrotation Xrotation Zrotation
    JOINT RightToe
    {
     OFFSET 0.000000 -4.915500 10.826300
     CHANNELS 3 Yrotation Xrotation Zrotation
     End Site
     {
      OFFSET 0.000000 -1.517500 6.175900
     }
    }
   }
  }
 }
 JOINT LeftHip
 {
  OFFSET 8.365600 -0.032100 -0.003200
  CHANNELS 3 Yrotation Xrotation Zrotation
  JOINT LeftKnee
  {
   OFFSET 0.000000 -43.980000 0.003100
   CHANNELS 3 Yrotation Xrotation Zrotation
   JOINT LeftAnkle
   {
    OFFSET 0.000000 -42.882800 0.005200
    CHANNELS 3 Yrotation Xrotation Zrotation
    JOINT LeftToe
    {
     OFFSET 0.000000 -4.915500 10.826300
     CHANNELS 3 Yrotation Xrotation Zrotation
     End Site
     {
      OFFSET 0.000000 -1.517500 6.175900
     }
    }
   }
  }
 }
}
MOTION
Frames: 15
Frame Time: 0.008333
0.000000 91.618600 0.000000 0.000000 -5.767877 0.000000 0.000000 11.653817 0.000000 0.000000 -5.885947 0.000000 0.000000 -0.000000 0.000000 0.000000 -0.000000 0.000000 0.000000 12.528835 0.000000 0.000000 0.711642 0.000000 0.000000 -0.000000 0.000000 0.000000 0.000000 -90.000000 0.000000 -2.309062 0.000000 0.000000 2.309062 0.000000 0.000000 -0.000000 0.000000 0.000000 -0.000000 90.000000 0.000000 -2.309062 0.000000 0.000000 2.309062 0.000000 0.000000 8.520406 0.000000 0.000000 1.905762 0.000000 -0.000000 -4.658285 0.000000 0.000000 -0.000000 0.000000 0.000000 8.520406 0.000000 0.000000 1.905762 0.000000 -0.000000 -4.658285 0.000000 0.000000 -0.000000 0.000000
7.032152 126.684089 47.911868 171.148976 -22.936820 -4.552000 1.286894 13.685447 1.324750 0.095272 1.150266 0.099198 0.149666 1.977921 0.212935 1.145260 12.344819 1.155863 4.618923 20.651372 -9.810095 7.484332 -2.942238 -12.146039 4.340623 8.684742 -5.258434 -15.670009 -17.778894 -6.537275 -118.006936 -41.803449 152.189135 -18.938999 7.850207 11.460685 -2.866300 10.746664 0.092286 25.517051 -14.142545 -7.272378 122.442488 -44.290090 -157.937719 23.753315 -3.442437 -17.684725 4.506501 -58.656900 0.253529 -87.769200 79.027688 -80.790794 5.475826 4.796311 -17.470538 0.004487 0.001227 0.002037 -15.094285 -59.485111 2.979399 120.172971 84.425925 114.112788 -11.327989 -21.471641 -1.703793 0.001756 0.003172 0.000797
7.032589 126.687807 47.909100 171.149626 -22.992948 -4.567853 1.306351 13.710186 1.306356 0.096751 1.150458 0.097418 0.150790 1.979931 0.209730 1.165843 12.338586 1.121523 4.628721 20.671786 -9.753521 7.502109 -2.935469 -12.182953 4.331452 8.701860 -5.207590 -15.674851 -17.776529 -6.536550 -118.011245 -41.795041 152.257240 -18.968357 7.825243 11.456484 -2.884713 10.760114 0.118613 25.534046 -14.137275 -7.247738 122.413358 -44.276496 -157.937510 23.803770 -3.492749 -17.691725 4.483422 -58.601300 0.303606 -87.771143 79.016621 -80.799504 5.438273 4.797631 -17.461526 0.000896 -0.000765 0.000407 -15.105094 -59.424057 2.995501 120.244692 84.427996 114.185168 -11.390189 -21.473189 -1.694824 -0.001829 0.002596 -0.000831
7.031578 126.689525 47.911492 171.149642 -23.022068 -4.581990 1.323989 13.707078 1.285552 0.094923 1.157876 0.105769 0.157127 1.975029 0.197374 1.178310 12.335880 1.102892 4.649774 20.671252 -9.802802 7.515944 -2.920970 -12.128855 4.331139 8.702470 -5.230243 -15.698048 -17.745647 -6.484328 -118.019579 -41.784520 152.334533 -19.004900 7.796060 11.403090 -2.899979 10.766057 0.130707 25.551579 -14.128520 -7.223577 122.340748 -44.209672 -157.897696 23.798963 -3.501903 -17.690972 4.461393 -58.573356 0.339790 -87.748047 79.016252 -80.787395 5.450164 4.803710 -17.451331 -0.002454 -0.002294 -0.001114 -15.119396 -59.390786 3.011588 120.303937 84.424741 114.249157 -11.406186 -21.485409 -1.699070 -0.001336 0.002240 -0.000606
7.028646 126.689909 47.916909 171.152135 -23.033895 -4.590362 1.335610 13.688056 1.258235 0.096213 1.157763 0.104024 0.172656 1.942134 0.150080 1.186840 12.367528 1.131697 4.675250 20.674755 -9.818052 7.540160 -2.907531 -12.113102 4.333309 8.701125 -5.253300 -15.708058 -17.738886 -6.470242 -118.007104 -41.756287 152.368952 -19.030275 7.767800 11.430763 -2.908817 10.769305 0.145832 25.579212 -14.108385 -7.234784 122.280770 -44.165208 -157.899136 23.789367 -3.508185 -17.679319 4.458040 -58.560001 0.360813 -87.743072 79.006423 -80.786598 5.439294 4.798336 -17.443239 -0.001167 0.000515 -0.000530 -15.129334 -59.376834 3.019461 120.350811 84.426545 114.301192 -11.409909 -21.493050 -1.703799 -0.000135 0.002295 -0.000061
7.026911 126.691618 47.919595 171.158703 -23.063889 -4.605005 1.340381 13.703346 1.254254 0.105994 1.136265 0.075548 0.167930 1.955850 0.166565 1.198007 12.360127 1.103913 4.705077 20.682184 -9.816165 7.573971 -2.896252 -12.119312 4.333687 8.704201 -5.258178 -15.706965 -17.743241 -6.478178 -118.002880 -41.723568 152.409602 -19.048216 7.748015 11.474451 -2.916378 10.774277 0.161232 25.607303 -14.087715 -7.250492 122.244015 -44.137987 -157.926920 23.791878 -3.520282 -17.663578 4.441231 -58.527936 0.393206 -87.728814 78.994132 -80.780674 5.426131 4.796756 -17.425163 -0.004971 0.001664 -0.002257 -15.140377 -59.343056 3.025115 120.371838 84.427132 114.324111 -11.402971 -21.501929 -1.706501 0.001077 0.001516 0.000489
7.025115 126.692859 47.923334 171.162815 -23.087138 -4.619150 1.346136 13.712151 1.251338 0.114960 1.123227 0.059157 0.158354 1.975571 0.190837 1.203656 12.352943 1.084868 4.736319 20.678251 -9.847605 7.613597 -2.885944 -12.127450 4.332835 8.706066 -5.260991 -15.683324 -17.813794 -6.574074 -117.948226 -41.659382 152.368123 -19.065724 7.739347 11.502068 -2.927408 10.766748 0.146906 25.637572 -14.072998 -7.263609 122.227720 -44.144677 -157.964392 23.806527 -3.537929 -17.657358 4.423457 -58.504594 0.424921 -87.718049 78.985063 -80.772464 5.419438 4.798044 -17.417846 -0.004934 0.000589 -0.002240 -15.150860 -59.315968 3.032082 120.376870 84.426656 114.332926 -11.402555 -21.509827 -1.708313 0.000847 0.000527 0.000385
7.025531 126.695992 47.923032 171.179429 -23.134280 -4.646449 1.353819 13.733086 1.245937 0.115750 1.123856 0.058258 0.159561 1.974399 0.186360 1.203983 12.365795 1.094149 4.777302 20.673673 -9.875813 7.659737 -2.877299 -12.137727 4.334814 8.693360 -5.313055 -15.690632 -17.832721 -6.580549 -117.923556 -41.608616 152.389340 -19.078278 7.744770 11.540509 -2.934341 10.770431 0.155890 25.687837 -14.054283 -7.347455 122.218417 -44.184662 -158.036881 23.794303 -3.526434 -17.647890 4.386446 -58.453701 0.474870 -87.713377 78.973681 -80.766987 5.416414 4.798528 -17.413724 -0.002561 -0.002765 -0.001163 -15.178612 -59.261752 3.037055 120.385784 84.412325 114.342835 -11.335563 -21.529303 -1.720288 0.005874 -0.001506 0.002667
7.021383 126.696601 47.926867 171.180199 -23.150829 -4.645333 1.376752 13.705431 1.197354 0.106376 1.144186 0.079783 0.164421 1.971146 0.182983 1.228239 12.349755 1.040769 4.827931 20.691663 -9.827219 7.715995 -2.870364 -12.151243 4.324247 8.705180 -5.292220 -15.707478 -17.842282 -6.565761 -117.920486 -41.565712 152.445064 -19.085547 7.767801 11.590864 -2.954749 10.806424 0.231817 25.699864 -14.051123 -7.348915 122.194752 -44.135700 -158.048210 23.801390 -3.527516 -17.623864 4.390071 -58.436466 0.474072 -87.715683 78.979231 -80.770034 5.416404 4.797103 -17.416321 -0.001135 -0.002326 -0.000515 -15.172423 -59.244324 3.030464 120.372179 84.416125 114.340042 -11.451380 -21.520743 -1.710573 -0.003817 -0.000990 -0.001733
7.019661 126.697131 47.931451 171.183086 -23.163171 -4.658066 1.389171 13.690830 1.174717 0.104808 1.150003 0.085852 0.169215 1.968750 0.180886 1.227347 12.366325 1.063919 4.882012 20.681098 -9.869945 7.785491 -2.865492 -12.168900 4.325112 8.702170 -5.309340 -15.715008 -17.879328 -6.590307 -117.918863 -41.525250 152.506428 -19.083386 7.803353 11.652001 -2.966205 10.790275 0.203408 25.707771 -14.045548 -7.325274 122.162155 -44.035786 -158.073021 23.776046 -3.493201 -17.564006 4.376773 -58.423620 0.494694 -87.716142 78.985371 -80.771015 5.421335 4.795313 -17.416879 -0.001231 -0.001644 -0.000559 -15.196334 -59.228932 3.039459 120.383032 84.411447 114.361182 -11.401744 -21.525664 -1.727188 0.003245 -0.001303 0.001473
7.017485 126.698540 47.933389 171.185990 -23.188475 -4.664880 1.393207 13.706157 1.166740 0.106088 1.145354 0.077134 0.182237 1.944933 0.137863 1.240120 12.385579 1.086382 4.948955 20.678673 -9.872842 7.869850 -2.861342 -12.192300 4.322183 8.709771 -5.287990 -15.730627 -17.916982 -6.608210 -117.882105 -41.496796 152.493788 -19.043193 7.844604 11.784167 -2.987114 10.762246 0.175472 25.728204 -14.031203 -7.275987 122.142834 -44.016990 -158.108202 23.779244 -3.502981 -17.544391 4.374074 -58.398370 0.506075 -87.731542 78.985392 -80.790055 5.423584 4.794040 -17.412637 -0.003020 -0.001980 -0.001371 -15.212529 -59.196518 3.036387 120.335554 84.407502 114.317713 -11.410906 -21.529916 -1.733133 -0.001261 0.000833 -0.000573
7.016924 126.700859 47.933451 171.187875 -23.224823 -4.677172 1.398590 13.732904 1.164471 0.111156 1.137370 0.065619 0.182293 1.949049 0.141602 1.246087 12.379076 1.059460 5.035690 20.679385 -9.874131 7.969452 -2.856166 -12.224791 4.340330 8.698675 -5.328217 -15.778438 -17.915768 -6.559786 -117.910928 -41.454377 152.610203 -19.041043 7.897050 11.838610 -2.991689 10.760053 0.191075 25.798326 -14.016923 -7.301816 122.090291 -44.017860 -158.157876 23.776942 -3.533800 -17.588030 4.369093 -58.357147 0.521742 -87.735349 78.983222 -80.786149 5.423006 4.789460 -17.415355 -0.003595 -0.001200 -0.001632 -15.222174 -59.153612 3.038354 120.320562 84.406581 114.305466 -11.422894 -21.532105 -1.735163 -0.004907 0.000299 -0.002228
7.014763 126.701292 47.937304 171.193077 -23.235062 -4.683732 1.403689 13.725887 1.146573 0.111634 1.133950 0.060182 0.177466 1.965505 0.164686 1.257198 12.355759 0.981517 5.143655 20.686748 -9.837066 8.084782 -2.847906 -12.268838 4.358334 8.701488 -5.297541 -15.817110 -17.931607 -6.536560 -117.948062 -41.410332 152.732035 -19.032381 7.958334 11.906133 -2.991555 10.774281 0.252973 25.824449 -14.010452 -7.300783 122.060173 -43.998580 -158.182023 23.769796 -3.532738 -17.639481 4.365026 -58.344123 0.525424 -87.747434 78.982125 -80.795464 5.427364 4.783595 -17.415718 -0.003696 0.000518 -0.001678 -15.232476 -59.140289 3.036291 120.315675 84.405436 114.298992 -11.373049 -21.530640 -1.736980 -0.001203 -0.000003 -0.000546
7.013990 126.701765 47.941449 171.196192 -23.244259 -4.695882 1.415990 13.702339 1.118369 0.107643 1.150795 0.080560 0.175625 1.965734 0.161988 1.263534 12.356801 0.970566 5.252721 20.686945 -9.857265 8.216356 -2.834682 -12.324187 4.372282 8.700632 -5.303088 -15.849061 -17.954226 -6.521178 -117.963624 -41.373825 152.813985 -18.997162 8.019185 12.019684 -2.990788 10.783997 0.282623 25.839183 -14.008356 -7.312568 122.043742 -43.995561 -158.196254 23.770085 -3.527396 -17.681308 4.349160 -58.333482 0.542729 -87.751438 78.979746 -80.798413 5.459908 4.781431 -17.419482 -0.001870 -0.000277 -0.000849 -15.252238 -59.127871 3.044474 120.382623 84.413182 114.376477 -11.316406 -21.532074 -1.751913 0.006473 -0.000018 0.002939
7.012800 126.703243 47.942991 171.209515 -23.267367 -4.706234 1.414620 13.715305 1.110833 0.104861 1.154177 0.084939 0.178084 1.956571 0.148607 1.267097 12.360814 0.961226 5.375269 20.689504 -9.883711 8.365419 -2.816368 -12.390926 4.387537 8.700344 -5.307322 -15.880129 -17.972842 -6.504181 -117.980187 -41.339231 152.897957 -18.953641 8.081757 12.152466 -2.989677 10.776690 0.287838 25.835030 -14.002658 -7.282289 122.029900 -43.982804 -158.200641 23.782976 -3.507697 -17.745202 4.328745 -58.307344 0.555368 -87.748020 78.977544 -80.794552 5.469299 4.778759 -17.421881 -0.001196 -0.003498 -0.000543 -15.275567 -59.099331 3.038367 120.301195 84.401675 114.290932 -11.295226 -21.531403 -1.753799 0.003917 0.001674 0.001779
